<svg xmlns="http://www.w3.org/2000/svg" width="23" height="22" viewBox="0 0 23 22" fill="none">
  <path d="M12.6841 22H5.61447C4.74968 22 3.92026 21.6528 3.30845 21.0347C2.69663 20.4165 2.35246 19.5781 2.35156 18.7034V3.3C2.35156 2.42479 2.69533 1.58542 3.30725 0.966548C3.91916 0.347678 4.74909 0 5.61447 0L12.6841 0C13.1126 0 13.5369 0.085357 13.9328 0.251198C14.3286 0.417038 14.6883 0.660114 14.9913 0.966548C15.2943 1.27298 15.5347 1.63677 15.6986 2.03714C15.8626 2.43752 15.947 2.86664 15.947 3.3V3.4375C15.947 3.61984 15.8754 3.7947 15.7479 3.92364C15.6204 4.05257 15.4475 4.125 15.2672 4.125C15.087 4.125 14.914 4.05257 14.7866 3.92364C14.6591 3.7947 14.5875 3.61984 14.5875 3.4375V3.3C14.5875 2.78946 14.3869 2.29983 14.03 1.93882C13.673 1.57781 13.1889 1.375 12.6841 1.375H5.61447C5.10967 1.375 4.62554 1.57781 4.26859 1.93882C3.91164 2.29983 3.71111 2.78946 3.71111 3.3V18.7069C3.71291 19.2162 3.91423 19.7041 4.27099 20.0636C4.62774 20.4231 5.11084 20.625 5.61447 20.625H12.6841C12.9341 20.625 13.1816 20.5752 13.4125 20.4785C13.6434 20.3817 13.8532 20.2399 14.03 20.0612C14.2067 19.8824 14.3469 19.6702 14.4426 19.4367C14.5382 19.2031 14.5875 18.9528 14.5875 18.7V18.5625C14.5875 18.3802 14.6591 18.2053 14.7866 18.0764C14.914 17.9474 15.087 17.875 15.2672 17.875C15.4475 17.875 15.6204 17.9474 15.7479 18.0764C15.8754 18.2053 15.947 18.3802 15.947 18.5625V18.7C15.947 19.1334 15.8626 19.5625 15.6986 19.9629C15.5347 20.3632 15.2943 20.727 14.9913 21.0335C14.6883 21.3399 14.3286 21.583 13.9328 21.7488C13.5369 21.9146 13.1126 22 12.6841 22Z" fill="black"/>
  <path d="M9.14861 19.25C8.87972 19.25 8.61686 19.1694 8.39329 19.0183C8.16971 18.8672 7.99545 18.6524 7.89255 18.4012C7.78965 18.1499 7.76273 17.8735 7.81519 17.6068C7.86764 17.34 7.99713 17.095 8.18726 16.9027C8.3774 16.7104 8.61965 16.5795 8.88337 16.5264C9.1471 16.4734 9.42046 16.5006 9.66888 16.6047C9.91731 16.7087 10.1296 16.885 10.279 17.1111C10.4284 17.3372 10.5082 17.6031 10.5082 17.875C10.5082 18.2397 10.3649 18.5894 10.11 18.8473C9.85499 19.1051 9.50918 19.25 9.14861 19.25Z" fill="black"/>
  <path d="M11.1881 4.125H7.10946C6.92917 4.125 6.75627 4.05257 6.62879 3.92364C6.50131 3.7947 6.42969 3.61984 6.42969 3.4375C6.42969 3.25516 6.50131 3.0803 6.62879 2.95136C6.75627 2.82243 6.92917 2.75 7.10946 2.75H11.1881C11.3684 2.75 11.5413 2.82243 11.6688 2.95136C11.7962 3.0803 11.8679 3.25516 11.8679 3.4375C11.8679 3.61984 11.7962 3.7947 11.6688 3.92364C11.5413 4.05257 11.3684 4.125 11.1881 4.125Z" fill="black"/>
  <path d="M20.0247 12.375H10.5079C10.3276 12.375 10.1547 12.3026 10.0272 12.1736C9.89974 12.0447 9.82812 11.8698 9.82812 11.6875V8.9375C9.82812 8.75516 9.89974 8.5803 10.0272 8.45136C10.1547 8.32243 10.3276 8.25 10.5079 8.25H20.0247C20.205 8.25 20.3779 8.32243 20.5054 8.45136C20.6329 8.5803 20.7045 8.75516 20.7045 8.9375V11.6875C20.7045 11.8698 20.6329 12.0447 20.5054 12.1736C20.3779 12.3026 20.205 12.375 20.0247 12.375ZM11.1877 11H19.3449V9.625H11.1877V11Z" fill="black"/>
  <path d="M17.9853 16.5H12.5471C12.0063 16.5 11.4876 16.2827 11.1051 15.8959C10.7227 15.5091 10.5078 14.9845 10.5078 14.4375V11.6875C10.5078 11.5052 10.5794 11.3303 10.7069 11.2014C10.8344 11.0724 11.0073 11 11.1876 11H19.3449C19.5251 11 19.698 11.0724 19.8255 11.2014C19.953 11.3303 20.0246 11.5052 20.0246 11.6875V14.4375C20.0246 14.9845 19.8098 15.5091 19.4273 15.8959C19.0449 16.2827 18.5262 16.5 17.9853 16.5ZM11.8674 12.375V14.4375C11.8674 14.6198 11.939 14.7947 12.0665 14.9236C12.1939 15.0526 12.3668 15.125 12.5471 15.125H17.9853C18.1656 15.125 18.3385 15.0526 18.466 14.9236C18.5935 14.7947 18.6651 14.6198 18.6651 14.4375V12.375H11.8674Z" fill="black"/>
  <path d="M17.9851 9.625H12.547C12.3667 9.625 12.1938 9.55257 12.0663 9.42364C11.9388 9.2947 11.8672 9.11984 11.8672 8.9375V7.5625C11.8672 7.01549 12.082 6.49089 12.4645 6.10409C12.8469 5.7173 13.3656 5.5 13.9065 5.5H16.6256C17.1665 5.5 17.6852 5.7173 18.0676 6.10409C18.4501 6.49089 18.6649 7.01549 18.6649 7.5625V8.9375C18.6649 9.11984 18.5933 9.2947 18.4658 9.42364C18.3383 9.55257 18.1654 9.625 17.9851 9.625ZM13.2267 8.25H17.3054V7.5625C17.3054 7.38016 17.2337 7.2053 17.1063 7.07636C16.9788 6.94743 16.8059 6.875 16.6256 6.875H13.9065C13.7262 6.875 13.5533 6.94743 13.4258 7.07636C13.2984 7.2053 13.2267 7.38016 13.2267 7.5625V8.25Z" fill="black"/>
  </svg>