<svg width="95" height="86" viewBox="0 0 95 86" fill="none" xmlns="http://www.w3.org/2000/svg">
<g id="Group 48102075">
<ellipse id="Ellipse 2" cx="47.5" cy="43.3434" rx="47.5" ry="42.4034" fill="#315951" fill-opacity="0.54"/>
<path id="Vector" d="M60 38.8517V51.4053C60 52.5605 58.9502 53.4976 57.6562 53.4976H37.3438C36.0498 53.4976 35 52.5605 35 51.4053V38.8517C35 37.6966 36.0498 36.7594 37.3438 36.7594H41.6406L42.2412 35.3253C42.583 34.5102 43.457 33.9697 44.4336 33.9697H50.5615C51.5381 33.9697 52.4121 34.5102 52.7539 35.3253L53.3594 36.7594H57.6562C58.9502 36.7594 60 37.6966 60 38.8517ZM53.3594 45.1285C53.3594 42.2429 50.7324 39.8978 47.5 39.8978C44.2676 39.8978 41.6406 42.2429 41.6406 45.1285C41.6406 48.0141 44.2676 50.3592 47.5 50.3592C50.7324 50.3592 53.3594 48.0141 53.3594 45.1285ZM51.7969 45.1285C51.7969 47.2426 49.8682 48.9644 47.5 48.9644C45.1318 48.9644 43.2031 47.2426 43.2031 45.1285C43.2031 43.0145 45.1318 41.2927 47.5 41.2927C49.8682 41.2927 51.7969 43.0145 51.7969 45.1285Z" fill="#EF9B28" fill-opacity="0.6"/>
</g>
</svg>
