<svg xmlns="http://www.w3.org/2000/svg" width="20" height="22" viewBox="0 0 20 22" fill="none">
  <g clip-path="url(#clip0_1733_1021)">
  <path d="M14.7758 4.125H13.561C13.561 3.76033 13.433 3.41059 13.2051 3.15273C12.9773 2.89487 12.6683 2.75 12.3461 2.75H11.7386V2.0625C11.7386 1.51549 11.5466 0.990886 11.2049 0.604092C10.8631 0.217298 10.3996 0 9.91628 0C9.43296 0 8.96945 0.217298 8.62769 0.604092C8.28594 0.990886 8.09394 1.51549 8.09394 2.0625V2.75H7.4865C7.16429 2.75 6.85527 2.89487 6.62744 3.15273C6.3996 3.41059 6.2716 3.76033 6.2716 4.125H5.05671C4.5734 4.125 4.10988 4.3423 3.76813 4.72909C3.42637 5.11589 3.23438 5.64049 3.23438 6.1875V19.9375C3.23438 20.4845 3.42637 21.0091 3.76813 21.3959C4.10988 21.7827 4.5734 22 5.05671 22H10.5237C10.6848 22 10.8393 21.9276 10.9533 21.7986C11.0672 21.6697 11.1312 21.4948 11.1312 21.3125C11.1312 21.1302 11.0672 20.9553 10.9533 20.8264C10.8393 20.6974 10.6848 20.625 10.5237 20.625H5.05671C4.89561 20.625 4.7411 20.5526 4.62718 20.4236C4.51327 20.2947 4.44927 20.1198 4.44927 19.9375V6.1875C4.44927 6.00516 4.51327 5.8303 4.62718 5.70136C4.7411 5.57243 4.89561 5.5 5.05671 5.5H6.2716C6.2716 5.86467 6.3996 6.21441 6.62744 6.47227C6.85527 6.73013 7.16429 6.875 7.4865 6.875H12.3461C12.6683 6.875 12.9773 6.73013 13.2051 6.47227C13.433 6.21441 13.561 5.86467 13.561 5.5H14.7758C14.9369 5.5 15.0915 5.57243 15.2054 5.70136C15.3193 5.8303 15.3833 6.00516 15.3833 6.1875V11.6875C15.3833 11.8698 15.4473 12.0447 15.5612 12.1736C15.6751 12.3026 15.8296 12.375 15.9907 12.375C16.1518 12.375 16.3063 12.3026 16.4203 12.1736C16.5342 12.0447 16.5982 11.8698 16.5982 11.6875V6.1875C16.5982 5.64049 16.4062 5.11589 16.0644 4.72909C15.7227 4.3423 15.2592 4.125 14.7758 4.125ZM9.30883 2.0625C9.30883 1.88016 9.37283 1.7053 9.48675 1.57636C9.60067 1.44743 9.75517 1.375 9.91628 1.375C10.0774 1.375 10.2319 1.44743 10.3458 1.57636C10.4597 1.7053 10.5237 1.88016 10.5237 2.0625V2.75H9.30883V2.0625ZM7.4865 5.5V4.125H12.3461V4.8125V5.5H7.4865Z" fill="black"/>
  <path d="M10.5219 16.5C10.3814 16.4991 10.2456 16.4431 10.1374 16.3415C10.0293 16.24 9.95569 16.0991 9.92902 15.943C9.90235 15.7869 9.92431 15.6251 9.99118 15.4853C10.058 15.3455 10.1657 15.2362 10.2957 15.176C10.4258 15.1159 10.5702 15.1087 10.7045 15.1556C10.8387 15.2024 10.9545 15.3005 11.032 15.4331C11.1095 15.5657 11.144 15.7246 11.1297 15.8828C11.1153 16.041 11.0529 16.1886 10.9532 16.3006C10.8368 16.4262 10.6827 16.4975 10.5219 16.5Z" fill="black"/>
  <path d="M6.87753 17.1874C6.79759 17.1879 6.71834 17.1706 6.64433 17.1364C6.57032 17.1021 6.50301 17.0517 6.44625 16.988L5.8388 16.3005C5.72442 16.171 5.66016 15.9955 5.66016 15.8124C5.66016 15.6293 5.72442 15.4537 5.8388 15.3243C5.95318 15.1948 6.10832 15.1221 6.27009 15.1221C6.43185 15.1221 6.58699 15.1948 6.70137 15.3243L6.87753 15.5305L7.66114 14.6368C7.71778 14.5727 7.78501 14.5218 7.85901 14.4871C7.93301 14.4524 8.01233 14.4346 8.09242 14.4346C8.17252 14.4346 8.25183 14.4524 8.32584 14.4871C8.39984 14.5218 8.46707 14.5727 8.52371 14.6368C8.58035 14.7009 8.62528 14.777 8.65593 14.8607C8.68658 14.9445 8.70236 15.0342 8.70236 15.1249C8.70236 15.2155 8.68658 15.3053 8.65593 15.3891C8.62528 15.4728 8.58035 15.5489 8.52371 15.613L7.30882 16.988C7.25206 17.0517 7.18474 17.1021 7.11074 17.1364C7.03673 17.1706 6.95748 17.1879 6.87753 17.1874Z" fill="black"/>
  <path d="M13.5626 11H10.5254C10.3643 11 10.2098 10.9276 10.0959 10.7986C9.98197 10.6697 9.91797 10.4948 9.91797 10.3125C9.91797 10.1302 9.98197 9.9553 10.0959 9.82636C10.2098 9.69743 10.3643 9.625 10.5254 9.625H13.5626C13.7237 9.625 13.8783 9.69743 13.9922 9.82636C14.1061 9.9553 14.1701 10.1302 14.1701 10.3125C14.1701 10.4948 14.1061 10.6697 13.9922 10.7986C13.8783 10.9276 13.7237 11 13.5626 11Z" fill="black"/>
  <path d="M6.87753 11.6874C6.79759 11.6879 6.71834 11.6706 6.64433 11.6364C6.57032 11.6021 6.50301 11.5517 6.44625 11.488L5.8388 10.8005C5.72442 10.671 5.66016 10.4955 5.66016 10.3124C5.66016 10.1293 5.72442 9.95372 5.8388 9.82426C5.95318 9.6948 6.10832 9.62207 6.27009 9.62207C6.43185 9.62207 6.58699 9.6948 6.70137 9.82426L6.87753 10.0305L7.66114 9.13676C7.77552 9.0073 7.93066 8.93457 8.09242 8.93457C8.25419 8.93457 8.40933 9.0073 8.52371 9.13676C8.6381 9.26622 8.70236 9.4418 8.70236 9.62488C8.70236 9.80797 8.6381 9.98355 8.52371 10.113L7.30882 11.488C7.25206 11.5517 7.18474 11.6021 7.11074 11.6364C7.03673 11.6706 6.95748 11.6879 6.87753 11.6874Z" fill="black"/>
  <path d="M14.7773 14.4375H17.2071V16.5C17.2071 16.6823 17.1431 16.8572 17.0292 16.9861C16.9153 17.1151 16.7608 17.1875 16.5997 17.1875H15.3848C15.2237 17.1875 15.0692 17.1151 14.9553 16.9861C14.8413 16.8572 14.7773 16.6823 14.7773 16.5V14.4375Z" fill="black"/>
  <path d="M17.8147 22H14.17C13.6867 22 13.2232 21.7827 12.8814 21.3959C12.5397 21.0091 12.3477 20.4845 12.3477 19.9375V15.8125C12.3477 15.2655 12.5397 14.7409 12.8814 14.3541C13.2232 13.9673 13.6867 13.75 14.17 13.75H17.8147C18.298 13.75 18.7615 13.9673 19.1033 14.3541C19.445 14.7409 19.637 15.2655 19.637 15.8125V19.9375C19.637 20.4845 19.445 21.0091 19.1033 21.3959C18.7615 21.7827 18.298 22 17.8147 22ZM14.17 15.125C14.0089 15.125 13.8544 15.1974 13.7405 15.3264C13.6265 15.4553 13.5625 15.6302 13.5625 15.8125V19.9375C13.5625 20.1198 13.6265 20.2947 13.7405 20.4236C13.8544 20.5526 14.0089 20.625 14.17 20.625H17.8147C17.9758 20.625 18.1303 20.5526 18.2442 20.4236C18.3581 20.2947 18.4221 20.1198 18.4221 19.9375V15.8125C18.4221 15.6302 18.3581 15.4553 18.2442 15.3264C18.1303 15.1974 17.9758 15.125 17.8147 15.125H14.17Z" fill="black"/>
  </g>
  <defs>
  <clipPath id="clip0_1733_1021">
  <path d="M0.195312 9.71913C0.195312 4.3514 4.54672 0 9.91444 0C15.2822 0 19.6336 4.3514 19.6336 9.71913V12.2809C19.6336 17.6486 15.2822 22 9.91444 22C4.54672 22 0.195312 17.6486 0.195312 12.2809V9.71913Z" fill="white"/>
  </clipPath>
  </defs>
  </svg>