<svg xmlns="http://www.w3.org/2000/svg" width="19" height="22" viewBox="0 0 19 22" fill="none">
  <g clip-path="url(#clip0_1733_1010)">
  <path d="M10.1856 22H9.09106C8.65562 22 8.23801 21.7827 7.9301 21.3959C7.6222 21.0091 7.44922 20.4845 7.44922 19.9375V11.6875C7.44922 11.1405 7.6222 10.6159 7.9301 10.2291C8.23801 9.8423 8.65562 9.625 9.09106 9.625H10.1856C10.6211 9.625 11.0387 9.8423 11.3466 10.2291C11.6545 10.6159 11.8275 11.1405 11.8275 11.6875V15.8125C11.8275 15.9948 11.7698 16.1697 11.6672 16.2986C11.5645 16.4276 11.4253 16.5 11.2802 16.5C11.135 16.5 10.9958 16.4276 10.8932 16.2986C10.7906 16.1697 10.7329 15.9948 10.7329 15.8125V11.6875C10.7329 11.5052 10.6752 11.3303 10.5726 11.2014C10.47 11.0724 10.3308 11 10.1856 11H9.09106C8.94591 11 8.80671 11.0724 8.70407 11.2014C8.60144 11.3303 8.54378 11.5052 8.54378 11.6875V19.9375C8.54378 20.1198 8.60144 20.2947 8.70407 20.4236C8.80671 20.5526 8.94591 20.625 9.09106 20.625H10.1856C10.3308 20.625 10.47 20.5526 10.5726 20.4236C10.6752 20.2947 10.7329 20.1198 10.7329 19.9375V18.5625C10.7329 18.3802 10.7906 18.2053 10.8932 18.0764C10.9958 17.9474 11.135 17.875 11.2802 17.875C11.4253 17.875 11.5645 17.9474 11.6672 18.0764C11.7698 18.2053 11.8275 18.3802 11.8275 18.5625V19.9375C11.8275 20.4845 11.6545 21.0091 11.3466 21.3959C11.0387 21.7827 10.6211 22 10.1856 22Z" fill="black"/>
  <path d="M4.71296 22H3.6184C3.18296 22 2.76535 21.7827 2.45745 21.3959C2.14954 21.0091 1.97656 20.4845 1.97656 19.9375V15.8125C1.97656 15.2655 2.14954 14.7409 2.45745 14.3541C2.76535 13.9673 3.18296 13.75 3.6184 13.75H4.71296C5.14841 13.75 5.56602 13.9673 5.87392 14.3541C6.18183 14.7409 6.3548 15.2655 6.3548 15.8125V19.9375C6.3548 20.4845 6.18183 21.0091 5.87392 21.3959C5.56602 21.7827 5.14841 22 4.71296 22ZM3.6184 15.125C3.47326 15.125 3.33405 15.1974 3.23142 15.3264C3.12878 15.4553 3.07112 15.6302 3.07112 15.8125V19.9375C3.07112 20.1198 3.12878 20.2947 3.23142 20.4236C3.33405 20.5526 3.47326 20.625 3.6184 20.625H4.71296C4.85811 20.625 4.99731 20.5526 5.09995 20.4236C5.20258 20.2947 5.26024 20.1198 5.26024 19.9375V15.8125C5.26024 15.6302 5.20258 15.4553 5.09995 15.3264C4.99731 15.1974 4.85811 15.125 4.71296 15.125H3.6184Z" fill="black"/>
  <path d="M15.6583 22H14.5637C14.1283 22 13.7107 21.7827 13.4028 21.3959C13.0949 21.0091 12.9219 20.4845 12.9219 19.9375V8.9375C12.9219 8.39049 13.0949 7.86589 13.4028 7.47909C13.7107 7.0923 14.1283 6.875 14.5637 6.875H15.6583C16.0937 6.875 16.5113 7.0923 16.8192 7.47909C17.1271 7.86589 17.3001 8.39049 17.3001 8.9375V11.6875C17.3001 11.8698 17.2425 12.0447 17.1398 12.1736C17.0372 12.3026 16.898 12.375 16.7528 12.375C16.6077 12.375 16.4685 12.3026 16.3659 12.1736C16.2632 12.0447 16.2056 11.8698 16.2056 11.6875V8.9375C16.2056 8.75516 16.1479 8.5803 16.0453 8.45136C15.9426 8.32243 15.8034 8.25 15.6583 8.25H14.5637C14.4186 8.25 14.2794 8.32243 14.1767 8.45136C14.0741 8.5803 14.0164 8.75516 14.0164 8.9375V19.9375C14.0164 20.1198 14.0741 20.2947 14.1767 20.4236C14.2794 20.5526 14.4186 20.625 14.5637 20.625H15.6583C15.8034 20.625 15.9426 20.5526 16.0453 20.4236C16.1479 20.2947 16.2056 20.1198 16.2056 19.9375V14.4375C16.2056 14.2552 16.2632 14.0803 16.3659 13.9514C16.4685 13.8224 16.6077 13.75 16.7528 13.75C16.898 13.75 17.0372 13.8224 17.1398 13.9514C17.2425 14.0803 17.3001 14.2552 17.3001 14.4375V19.9375C17.3001 20.4845 17.1271 21.0091 16.8192 21.3959C16.5113 21.7827 16.0937 22 15.6583 22Z" fill="black"/>
  <path d="M4.16528 11C3.84055 11 3.52312 10.879 3.25312 10.6524C2.98312 10.4258 2.77268 10.1037 2.64842 9.72679C2.52415 9.34991 2.49163 8.93521 2.55499 8.53513C2.61834 8.13504 2.77471 7.76754 3.00432 7.47909C3.23394 7.19065 3.52649 6.99421 3.84497 6.91463C4.16346 6.83505 4.49358 6.87589 4.79358 7.032C5.09359 7.18811 5.35001 7.45246 5.53042 7.79164C5.71083 8.13081 5.80712 8.52958 5.80712 8.9375C5.80712 9.48451 5.63414 10.0091 5.32624 10.3959C5.01833 10.7827 4.60072 11 4.16528 11ZM4.16528 8.25C4.05704 8.25 3.95123 8.29032 3.86123 8.36587C3.77123 8.44141 3.70108 8.54878 3.65966 8.67441C3.61824 8.80003 3.6074 8.93826 3.62851 9.07163C3.64963 9.20499 3.70176 9.32749 3.77829 9.42364C3.85483 9.51979 3.95235 9.58526 4.05851 9.61179C4.16467 9.63832 4.27471 9.6247 4.37471 9.57267C4.47472 9.52063 4.56019 9.43251 4.62033 9.31946C4.68046 9.2064 4.71256 9.07348 4.71256 8.9375C4.71256 8.75516 4.6549 8.5803 4.55226 8.45137C4.44963 8.32243 4.31043 8.25 4.16528 8.25Z" fill="black"/>
  <path d="M9.63794 6.875C9.31321 6.875 8.99578 6.75404 8.72578 6.52741C8.45578 6.30078 8.24534 5.97866 8.12107 5.60179C7.99681 5.22491 7.96429 4.81021 8.02764 4.41013C8.09099 4.01004 8.24736 3.64254 8.47698 3.35409C8.70659 3.06565 8.99914 2.86921 9.31763 2.78963C9.63611 2.71005 9.96623 2.75089 10.2662 2.907C10.5662 3.06311 10.8227 3.32746 11.0031 3.66664C11.1835 4.00581 11.2798 4.40458 11.2798 4.8125C11.2798 5.35951 11.1068 5.88412 10.7989 6.27091C10.491 6.6577 10.0734 6.875 9.63794 6.875ZM9.63794 4.125C9.52969 4.125 9.42388 4.16532 9.33388 4.24087C9.24388 4.31641 9.17374 4.42378 9.13231 4.54941C9.09089 4.67503 9.08005 4.81326 9.10117 4.94663C9.12229 5.07999 9.17441 5.20249 9.25095 5.29864C9.32749 5.39479 9.425 5.46026 9.53117 5.48679C9.63733 5.51332 9.74737 5.4997 9.84737 5.44767C9.94737 5.39563 10.0328 5.30751 10.093 5.19446C10.1531 5.0814 10.1852 4.94848 10.1852 4.8125C10.1852 4.63016 10.1276 4.4553 10.0249 4.32637C9.92229 4.19743 9.78308 4.125 9.63794 4.125Z" fill="black"/>
  <path d="M15.1106 4.125C14.7859 4.125 14.4684 4.00404 14.1984 3.77741C13.9284 3.55078 13.718 3.22866 13.5937 2.85179C13.4695 2.47491 13.4369 2.06021 13.5003 1.66013C13.5636 1.26004 13.72 0.892539 13.9496 0.604093C14.1793 0.315647 14.4718 0.119213 14.7903 0.0396313C15.1088 -0.0399507 15.4389 0.000893652 15.7389 0.156999C16.0389 0.313105 16.2953 0.577461 16.4757 0.916637C16.6561 1.25581 16.7524 1.65458 16.7524 2.0625C16.7524 2.60951 16.5795 3.13411 16.2715 3.52091C15.9636 3.9077 15.546 4.125 15.1106 4.125ZM15.1106 1.375C15.0023 1.375 14.8965 1.41532 14.8065 1.49087C14.7165 1.56641 14.6464 1.67378 14.605 1.79941C14.5635 1.92503 14.5527 2.06326 14.5738 2.19663C14.5949 2.32999 14.6471 2.45249 14.7236 2.54864C14.8001 2.64479 14.8977 2.71026 15.0038 2.73679C15.11 2.76332 15.22 2.7497 15.32 2.69767C15.42 2.64563 15.5055 2.55751 15.5656 2.44446C15.6258 2.3314 15.6579 2.19848 15.6579 2.0625C15.6579 1.88016 15.6002 1.7053 15.4976 1.57636C15.3949 1.44743 15.2557 1.375 15.1106 1.375Z" fill="black"/>
  <path d="M5.10052 8.91677C4.98091 8.91637 4.8647 8.86676 4.76966 8.77553C4.67463 8.6843 4.606 8.55646 4.57428 8.41159C4.54256 8.26671 4.5495 8.11277 4.59403 7.97332C4.63856 7.83386 4.71824 7.71657 4.82086 7.6394L8.42196 4.93065C8.54589 4.85056 8.68946 4.83288 8.8234 4.88121C8.95734 4.92953 9.07156 5.04023 9.14277 5.19071C9.21397 5.3412 9.2368 5.52014 9.20659 5.69103C9.17638 5.86193 9.09541 6.01192 8.98019 6.1104L5.37909 8.81915C5.29488 8.88248 5.19866 8.9162 5.10052 8.91677Z" fill="black"/>
  <path d="M10.6493 4.99105C10.522 4.99119 10.3987 4.93559 10.3005 4.83381C10.2023 4.73202 10.1355 4.59043 10.1114 4.43339C10.0874 4.27636 10.1077 4.1137 10.1688 3.97343C10.2299 3.83316 10.328 3.72404 10.4463 3.66486L13.8942 1.93305C13.9612 1.89788 14.033 1.87981 14.1056 1.87988C14.1782 1.87995 14.2501 1.89817 14.317 1.93346C14.3839 1.96876 14.4446 2.02043 14.4955 2.08546C14.5464 2.1505 14.5865 2.22761 14.6134 2.31229C14.6403 2.39697 14.6536 2.48754 14.6524 2.57872C14.6512 2.6699 14.6356 2.75987 14.6064 2.84339C14.5773 2.92691 14.5352 3.00231 14.4826 3.06521C14.4301 3.1281 14.3681 3.17723 14.3003 3.20973L10.8524 4.94155C10.7879 4.97432 10.7189 4.99113 10.6493 4.99105Z" fill="black"/>
  </g>
  <defs>
  <clipPath id="clip0_1733_1010">
  <path d="M0.882812 8.75648C0.882812 3.92041 4.80322 0 9.6393 0C14.4754 0 18.3958 3.92041 18.3958 8.75648V13.2435C18.3958 18.0796 14.4754 22 9.6393 22C4.80322 22 0.882812 18.0796 0.882812 13.2435V8.75648Z" fill="white"/>
  </clipPath>
  </defs>
  </svg>